{
  "accessors": [
    {
      "bufferView": 2,
      "componentType": 5126,
      "count": 65532,
      "max": [
        10.9439058303833,
        3.7107834815979004,
        6.5581278800964355
      ],
      "min": [
        -4.929921627044678,
        -3.550847053527832,
        -0.24565432965755463
      ],
      "type": "VEC3"
    },
    {
      "bufferView": 2,
      "byteOffset": 786384,
      "componentType": 5126,
      "count": 65532,
      "max": [
        0.9996148943901062,
        0.9999979734420776,
        0.9999813437461853
      ],
      "min": [
        -0.9997803568840027,
        -0.9999871253967285,
        -0.9999966025352478
      ],
      "type": "VEC3"
    },
    {
      "bufferView": 3,
      "componentType": 5126,
      "count": 65532,
      "max": [
        1.0,
        1.0,
        1.0,
        1.0
      ],
      "min": [
        0.0,
        0.0,
        0.0,
        1.0
      ],
      "type": "VEC4"
    },
    {
      "bufferView": 1,
      "componentType": 5126,
      "count": 65532,
      "max": [
        0.9774858355522156,
        0.9879531860351563
      ],
      "min": [
        0.0,
        0.018296241760253906
      ],
      "type": "VEC2"
    },
    {
      "bufferView": 0,
      "componentType": 5125,
      "count": 363810,
      "type": "SCALAR"
    },
    {
      "bufferView": 2,
      "byteOffset": 1572768,
      "componentType": 5126,
      "count": 4249,
      "max": [
        10.826760292053223,
        4.482606887817383,
        5.863615989685059
      ],
      "min": [
        -7.162031173706055,
        -3.363386869430542,
        -0.007427426055073738
      ],
      "type": "VEC3"
    },
    {
      "bufferView": 2,
      "byteOffset": 1623756,
      "componentType": 5126,
      "count": 4249,
      "max": [
        0.9994975328445435,
        0.9992875456809998,
        0.9999114274978638
      ],
      "min": [
        -0.997279942035675,
        -0.9998310804367065,
        -0.9993407726287842
      ],
      "type": "VEC3"
    },
    {
      "bufferView": 3,
      "byteOffset": 1048512,
      "componentType": 5126,
      "count": 4249,
      "max": [
        1.0,
        1.0,
        1.0,
        1.0
      ],
      "min": [
        1.0,
        1.0,
        1.0,
        1.0
      ],
      "type": "VEC4"
    },
    {
      "bufferView": 1,
      "byteOffset": 524256,
      "componentType": 5126,
      "count": 4249,
      "max": [
        0.9999997615814209,
        0.960658073425293
      ],
      "min": [
        0.009589433670043945,
        0.0
      ],
      "type": "VEC2"
    },
    {
      "bufferView": 0,
      "byteOffset": 1455240,
      "componentType": 5125,
      "count": 21657,
      "type": "SCALAR"
    }
  ],
  "asset": {
    "extras": {
      "author": "Taenshi (https://sketchfab.com/taenshi)",
      "license": "CC-BY-4.0 (http://creativecommons.org/licenses/by/4.0/)",
      "source": "https://sketchfab.com/3d-models/round-bunny-b395223d8cee468eaa0eff4a1e185e90",
      "title": "Round Bunny"
    },
    "generator": "Sketchfab-12.66.0",
    "version": "2.0"
  },
  "bufferViews": [
    {
      "buffer": 0,
      "byteLength": 1541868,
      "name": "floatBufferViews",
      "target": 34963
    },
    {
      "buffer": 0,
      "byteLength": 558248,
      "byteOffset": 1541868,
      "byteStride": 8,
      "name": "floatBufferViews",
      "target": 34962
    },
    {
      "buffer": 0,
      "byteLength": 1674744,
      "byteOffset": 2100116,
      "byteStride": 12,
      "name": "floatBufferViews",
      "target": 34962
    },
    {
      "buffer": 0,
      "byteLength": 1116496,
      "byteOffset": 3774860,
      "byteStride": 16,
      "name": "floatBufferViews",
      "target": 34962
    }
  ],
  "buffers": [
    {
      "byteLength": 4891356,
      "uri": "scene.bin"
    }
  ],
  "images": [
    {
      "uri": "textures/Bunmat_baseColor.jpeg"
    }
  ],
  "materials": [
    {
      "doubleSided": true,
      "name": "Bunmat",
      "pbrMetallicRoughness": {
        "baseColorTexture": {
          "index": 0
        },
        "metallicFactor": 0.0,
        "roughnessFactor": 0.3853254906
      }
    }
  ],
  "meshes": [
    {
      "name": "Bun_Bunmat_0",
      "primitives": [
        {
          "attributes": {
            "COLOR_0": 2,
            "NORMAL": 1,
            "POSITION": 0,
            "TEXCOORD_0": 3
          },
          "indices": 4,
          "material": 0,
          "mode": 4
        }
      ]
    },
    {
      "name": "Bun_Bunmat_0",
      "primitives": [
        {
          "attributes": {
            "COLOR_0": 7,
            "NORMAL": 6,
            "POSITION": 5,
            "TEXCOORD_0": 8
          },
          "indices": 9,
          "material": 0,
          "mode": 4
        }
      ]
    }
  ],
  "nodes": [
    {
      "children": [
        1
      ],
      "matrix": [
        1.0,
        0.0,
        0.0,
        0.0,
        0.0,
        2.220446049250313e-16,
        -1.0,
        0.0,
        0.0,
        1.0,
        2.220446049250313e-16,
        0.0,
        0.0,
        0.0,
        0.0,
        1.0
      ],
      "name": "Sketchfab_model"
    },
    {
      "children": [
        2
      ],
      "matrix": [
        0.009999999776482582,
        0.0,
        0.0,
        0.0,
        0.0,
        0.0,
        0.009999999776482582,
        0.0,
        0.0,
        -0.009999999776482582,
        0.0,
        0.0,
        0.0,
        0.0,
        0.0,
        1.0
      ],
      "name": "Bunnyfinal.fbx"
    },
    {
      "children": [
        3
      ],
      "name": "RootNode"
    },
    {
      "children": [
        4,
        5
      ],
      "matrix": [
        10.845873832702553,
        9.481763277558973e-07,
        -9.481760194976265e-07,
        0.0,
        -1.7372027031148048e-06,
        6.237923502721024e-06,
        -19.871284484862226,
        0.0,
        -2.8491762086195854e-06,
        32.59078979492015,
        1.0230785974100916e-05,
        0.0,
        -21.44573402404785,
        8.006067276000977,
        46.90422821044922,
        1.0
      ],
      "name": "Bun"
    },
    {
      "mesh": 0,
      "name": "Bun_Bunmat_0"
    },
    {
      "mesh": 1,
      "name": "Bun_Bunmat_0"
    }
  ],
  "samplers": [
    {
      "magFilter": 9729,
      "minFilter": 9987,
      "wrapS": 10497,
      "wrapT": 10497
    }
  ],
  "scene": 0,
  "scenes": [
    {
      "name": "Sketchfab_Scene",
      "nodes": [
        0
      ]
    }
  ],
  "textures": [
    {
      "sampler": 0,
      "source": 0
    }
  ]
}
